<svg width="32" height="32" viewBox="0 0 32 32" fill="none" xmlns="http://www.w3.org/2000/svg">
  <!-- Background circle with gradient -->
  <circle cx="16" cy="16" r="16" fill="url(#gradient)"/>
  
  <!-- Letter P -->
  <path d="M11 8C11 7.44772 11.4477 7 12 7H17.5C20.5376 7 23 9.46243 23 12.5C23 15.5376 20.5376 18 17.5 18H14V24C14 24.5523 13.5523 25 13 25H12C11.4477 25 11 24.5523 11 24V8Z M14 10V15H17.5C18.8807 15 20 13.8807 20 12.5C20 11.1193 18.8807 10 17.5 10H14Z" fill="white"/>
  
  <!-- Gradient definition -->
  <defs>
    <linearGradient id="gradient" x1="0" y1="0" x2="32" y2="32" gradientUnits="userSpaceOnUse">
      <stop offset="0%" stop-color="#C5459C"/>
      <stop offset="100%" stop-color="#932B74"/>
    </linearGradient>
  </defs>
</svg>

